<?xml version="1.0" standalone="no"?><!DOCTYPE svg PUBLIC "-//W3C//DTD SVG 20010904//EN"
    "http://www.w3.org/TR/2001/REC-SVG-20010904/DTD/svg10.dtd">
<svg height="212.000000pt" preserveAspectRatio="xMidYMid meet" version="1.0"
    viewBox="0 0 212.000000 212.000000" width="212.000000pt" xmlns="http://www.w3.org/2000/svg">
    <metadata>
        Created by potrace 1.11, written by Peter Selinger 2001-2013
    </metadata>
    <g fill="#000000" stroke="none"
        transform="translate(0.000000,212.000000) scale(0.100000,-0.100000)">
        <path d="M980 2081 c-41 -15 -257 -92 -480 -171 -223 -79 -408 -146 -412 -149
-6 -5 119 -1153 137 -1258 5 -30 23 -41 368 -229 199 -109 384 -210 410 -226
26 -15 53 -28 59 -28 6 0 192 99 413 220 222 121 407 220 412 220 10 0 158
1271 150 1292 -2 7 -36 24 -73 36 -38 13 -257 91 -488 173 -230 82 -419 149
-420 149 0 -1 -35 -13 -76 -29z m574 -372 c30 -24 34 -63 9 -91 -15 -17 -45
-18 -529 -18 l-513 0 -15 22 c-29 41 -14 83 34 101 8 3 234 6 501 6 477 1 487
1 513 -20z m-89 -245 c-5 -2 -127 -31 -269 -64 l-259 -60 -204 0 c-190 0 -204
1 -223 20 -26 26 -25 64 2 90 21 20 32 20 492 19 259 0 467 -2 461 -5z m218
-184 l27 -30 0 -311 c0 -288 -1 -312 -20 -348 -58 -114 -224 -112 -279 3 -26
53 -26 89 -1 140 27 54 62 78 122 84 l48 5 0 128 c0 71 -3 129 -7 129 -15 0
-366 -69 -369 -73 -2 -1 -4 -109 -4 -238 -1 -128 -5 -250 -11 -270 -47 -181
-309 -150 -309 36 0 88 65 156 150 159 l39 1 3 222 c4 305 -7 292 308 357 118
25 229 43 245 40 17 -2 42 -17 58 -34z m-743 -135 l0 -65 -199 0 c-185 0 -200
1 -225 21 -31 25 -34 61 -6 89 19 19 33 20 225 20 l205 0 0 -65z m-2 -257 l-3
-63 -201 0 c-185 0 -204 2 -223 19 -25 23 -27 63 -4 88 15 16 35 18 225 18
l209 0 -3 -62z m-154 -205 c-4 -10 -14 -39 -23 -65 l-16 -48 -112 0 c-104 0
-113 1 -127 22 -23 33 -19 64 10 87 24 19 40 21 151 21 115 0 125 -1 117 -17z" />
    </g>
</svg>
